
Complete name                    : The.Last.Song.avi
Format                           : AVI
File size                        : 1.37 GiB
Duration                         : 1h 43mn
Overall bit rate                 : 1 900 Kbps

Video

Format                           : MPEG-4 Visual
Codec ID/Hint                    : XviD
Duration                         : 1h 43mn
Bit rate                         : 1 505 Kbps
Width                            : 720 pixels
Height                           : 436 pixels
Display aspect ratio             : 2.35:1
Stream size                      : 1.08 GiB (79%)
Writing library                  : XviD 1.1.2 (UTC 2006-11-01)

Audio

Format                           : AC-3
Duration                         : 1h 43mn
Bit rate                         : 384 Kbps
Channel(s)                       : 6 channels
Channel positions                : Front: L C R, Side: L R, LFE
Sampling rate                    : 48.0 KHz
Bit depth                        : 16 bits
Stream size                      : 283 MiB (20%)


Text #1
Language                         : English

Text #2
Language                         : Swedish

Text #3
Language                         : Norwegian

Text #4
Language                         : Danish

Text #5
Language                         : Finnish

Text #6
Language                         : Icelandic
